<svg id="visual" viewBox="0 0 900 100" width="900" height="100" xmlns="http://www.w3.org/2000/svg" xmlns:xlink="http://www.w3.org/1999/xlink" version="1.1"><rect x="0" y="0" width="900" height="100" fill="#222428"></rect><path d="M0 74L10 72C20 70 40 66 60 65.3C80 64.7 100 67.3 120 68.5C140 69.7 160 69.3 180 65.7C200 62 220 55 240 52C260 49 280 50 300 51C320 52 340 53 360 57.2C380 61.3 400 68.7 420 72.2C440 75.7 460 75.3 480 75.8C500 76.3 520 77.7 540 76.3C560 75 580 71 600 71.3C620 71.7 640 76.3 660 77.3C680 78.3 700 75.7 720 72.5C740 69.3 760 65.7 780 64.3C800 63 820 64 840 63C860 62 880 59 890 57.5L900 56L900 0L890 0C880 0 860 0 840 0C820 0 800 0 780 0C760 0 740 0 720 0C700 0 680 0 660 0C640 0 620 0 600 0C580 0 560 0 540 0C520 0 500 0 480 0C460 0 440 0 420 0C400 0 380 0 360 0C340 0 320 0 300 0C280 0 260 0 240 0C220 0 200 0 180 0C160 0 140 0 120 0C100 0 80 0 60 0C40 0 20 0 10 0L0 0Z" fill="#ffb60c"></path><path d="M0 59L10 59.3C20 59.7 40 60.3 60 57.3C80 54.3 100 47.7 120 44.5C140 41.3 160 41.7 180 45.2C200 48.7 220 55.3 240 59.3C260 63.3 280 64.7 300 63.2C320 61.7 340 57.3 360 55.8C380 54.3 400 55.7 420 54.3C440 53 460 49 480 46.7C500 44.3 520 43.7 540 42.8C560 42 580 41 600 45.2C620 49.3 640 58.7 660 61.5C680 64.3 700 60.7 720 59C740 57.3 760 57.7 780 57.8C800 58 820 58 840 59.2C860 60.3 880 62.7 890 63.8L900 65L900 0L890 0C880 0 860 0 840 0C820 0 800 0 780 0C760 0 740 0 720 0C700 0 680 0 660 0C640 0 620 0 600 0C580 0 560 0 540 0C520 0 500 0 480 0C460 0 440 0 420 0C400 0 380 0 360 0C340 0 320 0 300 0C280 0 260 0 240 0C220 0 200 0 180 0C160 0 140 0 120 0C100 0 80 0 60 0C40 0 20 0 10 0L0 0Z" fill="#faa201"></path><path d="M0 38L10 41.3C20 44.7 40 51.3 60 51.5C80 51.7 100 45.3 120 43.7C140 42 160 45 180 43.8C200 42.7 220 37.3 240 38.7C260 40 280 48 300 49.2C320 50.3 340 44.7 360 42C380 39.3 400 39.7 420 39.8C440 40 460 40 480 40.5C500 41 520 42 540 40.5C560 39 580 35 600 33.7C620 32.3 640 33.7 660 33.8C680 34 700 33 720 34.2C740 35.3 760 38.7 780 39.5C800 40.3 820 38.7 840 38.5C860 38.3 880 39.7 890 40.3L900 41L900 0L890 0C880 0 860 0 840 0C820 0 800 0 780 0C760 0 740 0 720 0C700 0 680 0 660 0C640 0 620 0 600 0C580 0 560 0 540 0C520 0 500 0 480 0C460 0 440 0 420 0C400 0 380 0 360 0C340 0 320 0 300 0C280 0 260 0 240 0C220 0 200 0 180 0C160 0 140 0 120 0C100 0 80 0 60 0C40 0 20 0 10 0L0 0Z" fill="#f48e00"></path><path d="M0 32L10 31C20 30 40 28 60 27.3C80 26.7 100 27.3 120 30C140 32.7 160 37.3 180 38.3C200 39.3 220 36.7 240 37.3C260 38 280 42 300 43C320 44 340 42 360 40C380 38 400 36 420 36.3C440 36.7 460 39.3 480 39.3C500 39.3 520 36.7 540 35.7C560 34.7 580 35.3 600 36.8C620 38.3 640 40.7 660 40.3C680 40 700 37 720 36.7C740 36.3 760 38.7 780 38C800 37.3 820 33.7 840 34.2C860 34.7 880 39.3 890 41.7L900 44L900 0L890 0C880 0 860 0 840 0C820 0 800 0 780 0C760 0 740 0 720 0C700 0 680 0 660 0C640 0 620 0 600 0C580 0 560 0 540 0C520 0 500 0 480 0C460 0 440 0 420 0C400 0 380 0 360 0C340 0 320 0 300 0C280 0 260 0 240 0C220 0 200 0 180 0C160 0 140 0 120 0C100 0 80 0 60 0C40 0 20 0 10 0L0 0Z" fill="#ec7a00"></path><path d="M0 18L10 18.7C20 19.3 40 20.7 60 21.2C80 21.7 100 21.3 120 20C140 18.7 160 16.3 180 18.2C200 20 220 26 240 29.3C260 32.7 280 33.3 300 31.5C320 29.7 340 25.3 360 23.2C380 21 400 21 420 22.3C440 23.7 460 26.3 480 28.2C500 30 520 31 540 29.5C560 28 580 24 600 20.8C620 17.7 640 15.3 660 15.5C680 15.7 700 18.3 720 20.8C740 23.3 760 25.7 780 25.3C800 25 820 22 840 23.2C860 24.3 880 29.7 890 32.3L900 35L900 0L890 0C880 0 860 0 840 0C820 0 800 0 780 0C760 0 740 0 720 0C700 0 680 0 660 0C640 0 620 0 600 0C580 0 560 0 540 0C520 0 500 0 480 0C460 0 440 0 420 0C400 0 380 0 360 0C340 0 320 0 300 0C280 0 260 0 240 0C220 0 200 0 180 0C160 0 140 0 120 0C100 0 80 0 60 0C40 0 20 0 10 0L0 0Z" fill="#e36602"></path><path d="M0 21L10 19.5C20 18 40 15 60 14.5C80 14 100 16 120 16.3C140 16.7 160 15.3 180 14.7C200 14 220 14 240 13.2C260 12.3 280 10.7 300 10.2C320 9.7 340 10.3 360 10C380 9.7 400 8.3 420 9.8C440 11.3 460 15.7 480 15.5C500 15.3 520 10.7 540 8.7C560 6.7 580 7.3 600 8.2C620 9 640 10 660 11.5C680 13 700 15 720 16.3C740 17.7 760 18.3 780 18.5C800 18.7 820 18.3 840 17.7C860 17 880 16 890 15.5L900 15L900 0L890 0C880 0 860 0 840 0C820 0 800 0 780 0C760 0 740 0 720 0C700 0 680 0 660 0C640 0 620 0 600 0C580 0 560 0 540 0C520 0 500 0 480 0C460 0 440 0 420 0C400 0 380 0 360 0C340 0 320 0 300 0C280 0 260 0 240 0C220 0 200 0 180 0C160 0 140 0 120 0C100 0 80 0 60 0C40 0 20 0 10 0L0 0Z" fill="#da5107"></path></svg>