<svg id="visual" viewBox="0 0 900 100" width="900" height="100" xmlns="http://www.w3.org/2000/svg" xmlns:xlink="http://www.w3.org/1999/xlink" version="1.1"><rect x="0" y="0" width="900" height="100" fill="#222428"></rect><path d="M0 24L10 26C20 28 40 32 60 32.7C80 33.3 100 30.7 120 29.5C140 28.3 160 28.7 180 32.3C200 36 220 43 240 46C260 49 280 48 300 47C320 46 340 45 360 40.8C380 36.7 400 29.3 420 25.8C440 22.3 460 22.7 480 22.2C500 21.7 520 20.3 540 21.7C560 23 580 27 600 26.7C620 26.3 640 21.7 660 20.7C680 19.7 700 22.3 720 25.5C740 28.7 760 32.3 780 33.7C800 35 820 34 840 35C860 36 880 39 890 40.5L900 42L900 101L890 101C880 101 860 101 840 101C820 101 800 101 780 101C760 101 740 101 720 101C700 101 680 101 660 101C640 101 620 101 600 101C580 101 560 101 540 101C520 101 500 101 480 101C460 101 440 101 420 101C400 101 380 101 360 101C340 101 320 101 300 101C280 101 260 101 240 101C220 101 200 101 180 101C160 101 140 101 120 101C100 101 80 101 60 101C40 101 20 101 10 101L0 101Z" fill="#ffb60c"></path><path d="M0 39L10 38.7C20 38.3 40 37.7 60 40.7C80 43.7 100 50.3 120 53.5C140 56.7 160 56.3 180 52.8C200 49.3 220 42.7 240 38.7C260 34.7 280 33.3 300 34.8C320 36.3 340 40.7 360 42.2C380 43.7 400 42.3 420 43.7C440 45 460 49 480 51.3C500 53.7 520 54.3 540 55.2C560 56 580 57 600 52.8C620 48.7 640 39.3 660 36.5C680 33.7 700 37.3 720 39C740 40.7 760 40.3 780 40.2C800 40 820 40 840 38.8C860 37.7 880 35.3 890 34.2L900 33L900 101L890 101C880 101 860 101 840 101C820 101 800 101 780 101C760 101 740 101 720 101C700 101 680 101 660 101C640 101 620 101 600 101C580 101 560 101 540 101C520 101 500 101 480 101C460 101 440 101 420 101C400 101 380 101 360 101C340 101 320 101 300 101C280 101 260 101 240 101C220 101 200 101 180 101C160 101 140 101 120 101C100 101 80 101 60 101C40 101 20 101 10 101L0 101Z" fill="#faa201"></path><path d="M0 60L10 56.7C20 53.3 40 46.7 60 46.5C80 46.3 100 52.7 120 54.3C140 56 160 53 180 54.2C200 55.3 220 60.7 240 59.3C260 58 280 50 300 48.8C320 47.7 340 53.3 360 56C380 58.7 400 58.3 420 58.2C440 58 460 58 480 57.5C500 57 520 56 540 57.5C560 59 580 63 600 64.3C620 65.7 640 64.3 660 64.2C680 64 700 65 720 63.8C740 62.7 760 59.3 780 58.5C800 57.7 820 59.3 840 59.5C860 59.7 880 58.3 890 57.7L900 57L900 101L890 101C880 101 860 101 840 101C820 101 800 101 780 101C760 101 740 101 720 101C700 101 680 101 660 101C640 101 620 101 600 101C580 101 560 101 540 101C520 101 500 101 480 101C460 101 440 101 420 101C400 101 380 101 360 101C340 101 320 101 300 101C280 101 260 101 240 101C220 101 200 101 180 101C160 101 140 101 120 101C100 101 80 101 60 101C40 101 20 101 10 101L0 101Z" fill="#f48e00"></path><path d="M0 66L10 67C20 68 40 70 60 70.7C80 71.3 100 70.7 120 68C140 65.3 160 60.7 180 59.7C200 58.7 220 61.3 240 60.7C260 60 280 56 300 55C320 54 340 56 360 58C380 60 400 62 420 61.7C440 61.3 460 58.7 480 58.7C500 58.7 520 61.3 540 62.3C560 63.3 580 62.7 600 61.2C620 59.7 640 57.3 660 57.7C680 58 700 61 720 61.3C740 61.7 760 59.3 780 60C800 60.7 820 64.3 840 63.8C860 63.3 880 58.7 890 56.3L900 54L900 101L890 101C880 101 860 101 840 101C820 101 800 101 780 101C760 101 740 101 720 101C700 101 680 101 660 101C640 101 620 101 600 101C580 101 560 101 540 101C520 101 500 101 480 101C460 101 440 101 420 101C400 101 380 101 360 101C340 101 320 101 300 101C280 101 260 101 240 101C220 101 200 101 180 101C160 101 140 101 120 101C100 101 80 101 60 101C40 101 20 101 10 101L0 101Z" fill="#ec7a00"></path><path d="M0 80L10 79.3C20 78.7 40 77.3 60 76.8C80 76.3 100 76.7 120 78C140 79.3 160 81.7 180 79.8C200 78 220 72 240 68.7C260 65.3 280 64.7 300 66.5C320 68.3 340 72.7 360 74.8C380 77 400 77 420 75.7C440 74.3 460 71.7 480 69.8C500 68 520 67 540 68.5C560 70 580 74 600 77.2C620 80.3 640 82.7 660 82.5C680 82.3 700 79.7 720 77.2C740 74.7 760 72.3 780 72.7C800 73 820 76 840 74.8C860 73.7 880 68.3 890 65.7L900 63L900 101L890 101C880 101 860 101 840 101C820 101 800 101 780 101C760 101 740 101 720 101C700 101 680 101 660 101C640 101 620 101 600 101C580 101 560 101 540 101C520 101 500 101 480 101C460 101 440 101 420 101C400 101 380 101 360 101C340 101 320 101 300 101C280 101 260 101 240 101C220 101 200 101 180 101C160 101 140 101 120 101C100 101 80 101 60 101C40 101 20 101 10 101L0 101Z" fill="#e36602"></path><path d="M0 77L10 78.5C20 80 40 83 60 83.5C80 84 100 82 120 81.7C140 81.3 160 82.7 180 83.3C200 84 220 84 240 84.8C260 85.7 280 87.3 300 87.8C320 88.3 340 87.7 360 88C380 88.3 400 89.7 420 88.2C440 86.7 460 82.3 480 82.5C500 82.7 520 87.3 540 89.3C560 91.3 580 90.7 600 89.8C620 89 640 88 660 86.5C680 85 700 83 720 81.7C740 80.3 760 79.7 780 79.5C800 79.3 820 79.7 840 80.3C860 81 880 82 890 82.5L900 83L900 101L890 101C880 101 860 101 840 101C820 101 800 101 780 101C760 101 740 101 720 101C700 101 680 101 660 101C640 101 620 101 600 101C580 101 560 101 540 101C520 101 500 101 480 101C460 101 440 101 420 101C400 101 380 101 360 101C340 101 320 101 300 101C280 101 260 101 240 101C220 101 200 101 180 101C160 101 140 101 120 101C100 101 80 101 60 101C40 101 20 101 10 101L0 101Z" fill="#da5107"></path></svg>